<?xml version="1.0" encoding="UTF-8" standalone="no"?>
<svg width="12px" height="12px" viewBox="0 0 12 12" version="1.1" xmlns="http://www.w3.org/2000/svg" xmlns:xlink="http://www.w3.org/1999/xlink">
    <!-- Generator: Sketch 44.1 (41455) - http://www.bohemiancoding.com/sketch -->
    <title>icon_renting_price</title>
    <desc>Created with Sketch.</desc>
    <defs></defs>
    <g id="Symbols" stroke="none" stroke-width="1" fill="none" fill-rule="evenodd">
        <g id="租房信息列表" transform="translate(-128.000000, -51.000000)" fill="#FF5E3B">
            <g id="icon_renting_price">
                <path d="M128,51 L140,51 L140,63 L128,63 L128,51 Z M129,52 L129,62 L139,62 L139,52 L129,52 Z M130.5,53.5 L131.755435,53.5 L134,56.7156863 L136.244565,53.5 L137.5,53.5 L134.913043,57.0196078 L136.802536,57.0196078 L136.802536,57.6988796 L134.557971,57.6988796 L134.557971,58.4705882 L136.802536,58.4705882 L136.802536,59.0994398 L134.557971,59.0994398 L134.557971,60.5 L133.442029,60.5 L133.442029,59.0994398 L131.210145,59.0994398 L131.210145,58.4705882 L133.442029,58.4705882 L133.442029,57.6988796 L131.210145,57.6988796 L131.210145,57.0196078 L133.086957,57.0196078 L130.5,53.5 Z"></path>
            </g>
        </g>
    </g>
</svg>