<?xml version="1.0" encoding="UTF-8" standalone="no"?>
<svg width="12px" height="12px" viewBox="0 0 12 12" version="1.1" xmlns="http://www.w3.org/2000/svg" xmlns:xlink="http://www.w3.org/1999/xlink">
    <!-- Generator: Sketch 44.1 (41455) - http://www.bohemiancoding.com/sketch -->
    <title>icon_renting</title>
    <desc>Created with Sketch.</desc>
    <defs></defs>
    <g id="Symbols" stroke="none" stroke-width="1" fill="none" fill-rule="evenodd">
        <g id="租房信息列表" transform="translate(-11.000000, -51.000000)" fill="#FF5E3B">
            <g id="icon_renting">
                <path d="M22,57 L21.5,57 C21.2238576,57 21,56.7761424 21,56.5 C21,56.2238576 21.2238576,56 21.5,56 L22,56 L22,52 L12,52 L12,56 L13.5,56 C13.7761424,56 14,56.2238576 14,56.5 C14,56.7761424 13.7761424,57 13.5,57 L12,57 L12,62 L17,62 L17,57 L16.5,57 C16.2238576,57 16,56.7761424 16,56.5 C16,56.2238576 16.2238576,56 16.5,56 L18.5,56 C18.7761424,56 19,56.2238576 19,56.5 C19,56.7761424 18.7761424,57 18.5,57 L18,57 L18,62 L22,62 L22,57 Z M11,51 L23,51 L23,63 L11,63 L11,51 Z"></path>
            </g>
        </g>
    </g>
</svg>